#!OML:ASF X:\für Bonn\!DataBase\2005_08_10_Bjorn_Final\c3d\bjorn.ASF
:FULLY-SPECIFIED
:DEGREES
156
root -15.9784 18.3139 17.9478 -184.532 -237.151 -188.73
lowerback -0.187534 8.15 5.35432
upperback 6.04595 11.0494 -2.95573
thorax 8.11574 5.95094 -5.11902
lowerneck 1.9053 -1.83416 3.80694
upperneck 0.314195 -2.34746 0.685783
head -0.251871 -1.16792 -0.394312
rclavicle -1.92821e-014 1.35174e-014
rhumerus -39.1646 21.8807 -109.394
rradius 89.606
rwrist 3.78438
rhand -20.9645 28.1838
rfingers 7.12502
rthumb 5.40865 -1.72715
lclavicle -1.92821e-014 1.35174e-014
lhumerus -56.7888 -8.20978 90.4691
lradius 74.7723
lwrist -3.4239
lhand -42.8387 -24.4913
lfingers 7.12502
lthumb -15.703 4.89155
rfemur 5.98407 -7.77223 3.97704
rtibia 51.514
rfoot 6.60882 10.9779
rtoes -31.2395
lfemur -27.685 8.1673 -32.2944
ltibia 43.1975
lfoot -14.1081 1.08199
ltoes 2.08843
157
root -15.7395 18.1933 18.0732 -185.238 -237.469 -188.834
lowerback 0.259396 8.00463 5.3993
upperback 6.34515 10.8964 -3.04998
thorax 8.19433 5.9033 -5.30167
lowerneck 1.48142 -1.69056 3.94747
upperneck 0.0459609 -2.17063 0.654002
head -0.263528 -1.08334 -0.431231
rclavicle -9.58142e-014 1.27222e-014
rhumerus -39.6852 20.4575 -109.271
rradius 87.7099
rwrist 4.37472
rhand -21.1092 28.4315
rfingers 7.12502
rthumb 5.26888 -1.48301
lclavicle -9.58142e-014 1.27222e-014
lhumerus -55.3408 -6.59487 89.708
lradius 75.4289
lwrist -4.24151
lhand -43.5875 -25.405
lfingers 7.12502
lthumb -16.4241 3.91966
rfemur 5.02366 -7.67397 3.50417
rtibia 53.7277
rfoot 5.46366 10.7589
rtoes -32.7163
lfemur -26.5902 7.36508 -32.3269
ltibia 44.3968
lfoot -15.6487 1.83425
ltoes 3.96741
158
root -15.5041 18.0684 18.1951 -185.593 -237.835 -188.516
lowerback 0.722562 7.85222 5.23896
upperback 6.6791 10.7505 -3.22715
thorax 8.27856 5.85316 -5.46086
lowerneck 0.881986 -1.53812 4.13918
upperneck -0.0285957 -1.99361 0.61233
head -0.187739 -0.994675 -0.481336
rclavicle 9.66093e-014 -4.69132e-014
rhumerus -40.2216 18.962 -109.078
rradius 85.9938
rwrist 4.82987
rhand -20.9875 28.1995
rfingers 7.12502
rthumb 5.38645 -1.71201
lclavicle 9.66093e-014 -4.69132e-014
lhumerus -53.7797 -5.03568 89.0551
lradius 76.1142
lwrist -5.00442
lhand -44.4096 -26.2017
lfingers 7.12502
lthumb -17.2155 3.0557
rfemur 3.93971 -7.39268 2.88396
rtibia 55.938
rfoot 4.6085 10.279
rtoes -33.3084
lfemur -25.4802 6.60142 -32.6537
ltibia 45.5851
lfoot -17.2024 2.6025
ltoes 5.01618
159
root -15.271 17.9417 18.3149 -185.708 -238.255 -187.883
lowerback 1.23154 7.67968 4.88455
upperback 7.0341 10.5863 -3.42008
thorax 8.32083 5.78296 -5.54001
lowerneck 0.344883 -1.37955 4.23738
upperneck -0.165019 -1.80616 0.630206
head -0.13879 -0.901939 -0.496394
rclavicle 1.82882e-014 7.15625e-015
rhumerus -40.7799 17.4215 -108.787
rradius 84.3698
rwrist 5.29631
rhand -20.7218 27.9241
rfingers 7.12502
rthumb 5.64294 -1.98075
lclavicle 1.82882e-014 7.15625e-015
lhumerus -52.1712 -3.53912 88.5763
lradius 76.8685
lwrist -5.6338
lhand -45.0897 -26.4421
lfingers 7.12502
lthumb -17.8699 2.75692
rfemur 2.80533 -7.0575 2.12254
rtibia 58.1682
rfoot 3.88497 9.79052
rtoes -33.1834
lfemur -24.3148 5.85221 -33.1911
ltibia 46.7629
lfoot -18.7432 3.42752
ltoes 5.23365
160
root -15.0409 17.8144 18.4308 -185.678 -238.706 -187.121
lowerback 1.69281 7.47599 4.45158
upperback 7.41651 10.3809 -3.61633
thorax 8.40124 5.68837 -5.57433
lowerneck -0.121246 -1.18253 4.31417
upperneck -0.466444 -1.56103 0.649459
head -0.150219 -0.783175 -0.505931
rclavicle 6.24184e-014 -7.95139e-015
rhumerus -41.3265 15.9844 -108.42
rradius 82.8355
rwrist 5.68737
rhand -20.6761 27.6984
rfingers 7.12502
rthumb 5.68711 -2.20527
lclavicle 6.24184e-014 -7.95139e-015
lhumerus -50.4849 -2.03378 88.2415
lradius 77.7272
lwrist -6.03574
lhand -45.4654 -26.147
lfingers 7.12502
lthumb -18.2314 3.01865
rfemur 1.5392 -6.74364 1.3063
rtibia 60.4028
rfoot 3.07404 9.46925
rtoes -32.9797
lfemur -23.1719 5.21299 -33.8356
ltibia 47.9039
lfoot -20.1878 4.27948
ltoes 4.63543
161
root -14.8146 17.6892 18.5446 -185.591 -239.207 -186.347
lowerback 2.1691 7.24961 4.00161
upperback 7.74056 10.1386 -3.80352
thorax 8.39976 5.56943 -5.59778
lowerneck -0.418161 -0.970546 4.35375
upperneck -0.796451 -1.28624 0.666219
head -0.197118 -0.650283 -0.508525
rclavicle 1.35174e-014 7.15625e-015
rhumerus -41.9536 14.5971 -108.006
rradius 81.4079
rwrist 6.03223
rhand -21.0529 27.5019
rfingers 7.12502
rthumb 5.32331 -2.41122
lclavicle 1.35174e-014 7.15625e-015
lhumerus -48.8307 -0.661121 88.0744
lradius 78.68
lwrist -6.16819
lhand -45.7033 -25.5311
lfingers 7.12502
lthumb -18.4603 3.61294
rfemur 0.148462 -6.46505 0.516279
rtibia 62.6291
rfoot 2.02671 9.13497
rtoes -32.4672
lfemur -22.0746 4.74785 -34.4892
ltibia 49.0119
lfoot -21.4994 4.98223
ltoes 3.86627
162
root -14.5883 17.5742 18.6549 -185.611 -239.731 -185.799
lowerback 2.58384 7.00374 3.65221
upperback 8.03118 9.85726 -3.93785
thorax 8.40194 5.4323 -5.61361
lowerneck -0.677848 -0.734514 4.27278
upperneck -1.09894 -0.976397 0.750079
head -0.239936 -0.498956 -0.469999
rclavicle -1.04163e-013 2.8625e-014
rhumerus -42.6139 13.3414 -107.525
rradius 80.0912
rwrist 6.24483
rhand -21.5578 27.3316
rfingers 7.12502
rthumb 4.83578 -2.59326
lclavicle -1.04163e-013 2.8625e-014
lhumerus -47.168 0.595723 88.069
lradius 79.709
lwrist -6.04388
lhand -45.995 -25.1733
lfingers 7.12502
lthumb -18.7409 3.94393
rfemur -1.43071 -6.22627 -0.0750839
rtibia 64.7961
rfoot 0.724637 8.84518
rtoes -32.4726
lfemur -21.0352 4.46354 -35.0022
ltibia 50.0417
lfoot -22.7275 5.51109
ltoes 2.98264
163
root -14.3646 17.477 18.7618 -185.789 -240.254 -185.646
lowerback 2.90598 6.76111 3.46685
upperback 8.21493 9.5621 -4.03026
thorax 8.36088 5.29036 -5.66658
lowerneck -0.83048 -0.506248 4.23461
upperneck -1.38153 -0.671676 0.788053
head -0.295245 -0.350101 -0.452287
rclavicle -9.93923e-015 2.78299e-014
rhumerus -43.3325 12.0951 -106.992
rradius 79.0077
rwrist 6.44834
rhand -21.7956 27.0079
rfingers 7.12502
rthumb 4.60618 -2.92201
lclavicle -9.93923e-015 2.78299e-014
lhumerus -45.5581 1.66479 88.1692
lradius 80.7307
lwrist -5.85963
lhand -46.3259 -24.9114
lfingers 7.12502
lthumb -19.0592 4.17481
rfemur -3.32863 -6.08763 -0.340213
rtibia 66.8784
rfoot -0.709111 8.71101
rtoes -32.6622
lfemur -20.1322 4.27699 -35.265
ltibia 50.9222
lfoot -23.8433 5.81364
ltoes 2.1445
164
root -14.1368 17.3987 18.8657 -186.146 -240.843 -185.757
lowerback 3.19659 6.48046 3.39467
upperback 8.35886 9.20542 -4.07639
thorax 8.29666 5.12027 -5.73242
lowerneck -0.958209 -0.260064 4.09531
upperneck -1.57897 -0.341496 0.912467
head -0.327981 -0.18666 -0.391194
rclavicle 6.59965e-014 -1.43125e-014
rhumerus -44.1151 10.9912 -106.41
rradius 78.0322
rwrist 6.4502
rhand -21.5755 26.9291
rfingers 7.12502
rthumb 4.81867 -2.99612
lclavicle 6.59965e-014 -1.43125e-014
lhumerus -43.9546 2.50233 88.3657
lradius 81.7252
lwrist -5.68413
lhand -46.6139 -24.2538
lfingers 7.12502
lthumb -19.3361 4.80491
rfemur -5.29115 -6.11844 -0.446766
rtibia 68.7806
rfoot -2.07167 8.92261
rtoes -32.1705
lfemur -19.1375 4.12484 -35.3525
ltibia 51.5708
lfoot -24.8649 5.74234
ltoes 2.39292
165
root -13.9077 17.3387 18.9679 -186.456 -241.483 -185.876
lowerback 3.41686 6.18199 3.26888
upperback 8.52687 8.82294 -4.09106
thorax 8.2809 4.93217 -5.72467
lowerneck -1.29264 -0.00464135 3.91951
upperneck -1.52015 -0.0147293 1.00952
head -0.250129 -0.0196268 -0.332023
rclavicle -1.98785e-014 -9.54166e-015
rhumerus -44.8152 10.0255 -105.758
rradius 77.0925
rwrist 6.2681
rhand -21.0667 26.9287
rfingers 7.12502
rthumb 5.30997 -2.98477
lclavicle -1.98785e-014 -9.54166e-015
lhumerus -42.1813 3.08699 88.6751
lradius 82.5632
lwrist -5.60081
lhand -46.9368 -23.2398
lfingers 7.12502
lthumb -19.6465 5.7875
rfemur -7.3211 -6.27897 -0.52466
rtibia 70.4986
rfoot -3.5157 9.34422
rtoes -31.2444
lfemur -18.0371 3.93403 -35.4091
ltibia 51.9351
lfoot -25.7782 5.40563
ltoes 3.14755
166
root -13.6785 17.2901 19.0695 -186.725 -242.15 -185.959
lowerback 3.62053 5.86847 3.10447
upperback 8.70635 8.42029 -4.09791
thorax 8.2782 4.73097 -5.68361
lowerneck -1.76001 0.264372 3.75982
upperneck -1.28621 0.319848 1.04568
head -0.0989104 0.154514 -0.292961
rclavicle 2.38542e-014 -1.43125e-014
rhumerus -45.5181 9.19997 -105.076
rradius 76.3695
rwrist 5.87903
rhand -20.5204 26.8391
rfingers 7.12502
rthumb 5.83741 -3.06044
lclavicle 2.38542e-014 -1.43125e-014
lhumerus -40.3927 3.45845 89.0121
lradius 83.3356
lwrist -5.44346
lhand -47.2382 -22.664
lfingers 7.12502
lthumb -19.9362 6.33339
rfemur -9.35663 -6.38936 -0.525501
rtibia 72.0094
rfoot -4.99896 9.62742
rtoes -30.2704
lfemur -16.7954 3.67879 -35.4566
ltibia 52.0177
lfoot -26.5473 4.86474
ltoes 4.29259
167
root -13.4467 17.2536 19.1702 -186.719 -242.88 -185.87
lowerback 3.68334 5.55084 2.79318
upperback 8.85629 8.00692 -4.08802
thorax 8.29843 4.50942 -5.52838
lowerneck -2.20351 0.531216 3.62353
upperneck -1.03018 0.651944 0.967924
head 0.054743 0.326714 -0.291515
rclavicle 1.13307e-013 -6.04305e-014
rhumerus -46.4409 8.45599 -104.351
rradius 75.9811
rwrist 5.81315
rhand -20.4007 26.9064
rfingers 7.12502
rthumb 5.95293 -2.98992
lclavicle 1.13307e-013 -6.04305e-014
lhumerus -38.7092 3.54853 89.4076
lradius 84.0551
lwrist -5.12139
lhand -47.5628 -22.6881
lfingers 7.12502
lthumb -20.2483 6.27653
rfemur -11.5107 -6.53296 -0.520405
rtibia 73.3168
rfoot -6.43147 9.72691
rtoes -29.4201
lfemur -15.5351 3.3386 -35.5853
ltibia 51.8372
lfoot -27.1786 4.17475
ltoes 5.88521
168
root -13.2075 17.2344 19.2697 -186.495 -243.621 -185.684
lowerback 3.63486 5.22772 2.41104
upperback 8.91984 7.57934 -4.09455
thorax 8.28194 4.27046 -5.34354
lowerneck -2.40728 0.834087 3.42215
upperneck -0.885466 1.04888 1.00179
head 0.135374 0.52896 -0.244371
rclavicle 8.22969e-014 -4.92986e-014
rhumerus -47.6239 7.79432 -103.677
rradius 75.8472
rwrist 5.9665
rhand -20.6622 27.12
rfingers 7.12502
rthumb 5.70054 -2.78334
lclavicle 8.22969e-014 -4.92986e-014
lhumerus -37.3067 3.32862 89.75
lradius 84.8421
lwrist -4.58583
lhand -47.7637 -23.0296
lfingers 7.12502
lthumb -20.4413 5.91439
rfemur -13.8042 -6.65508 -0.437085
rtibia 74.3757
rfoot -7.95311 9.81519
rtoes -29.5873
lfemur -14.2877 2.91168 -35.7635
ltibia 51.436
lfoot -27.7235 3.47046
ltoes 7.62316
169
root -12.9642 17.2283 19.3686 -186.128 -244.441 -185.45
lowerback 3.46112 4.88458 1.9759
upperback 8.98003 7.1238 -4.07991
thorax 8.32636 4.01158 -5.09543
lowerneck -2.47134 1.12899 3.25525
upperneck -0.98433 1.44529 0.878083
head 0.120195 0.725963 -0.251164
rclavicle -9.74045e-014 1.43125e-014
rhumerus -48.8051 7.23272 -102.973
rradius 75.8152
rwrist 6.18296
rhand -21.0351 27.1543
rfingers 7.12502
rthumb 5.34048 -2.75845
lclavicle -9.74045e-014 1.43125e-014
lhumerus -35.9879 2.69822 90.1017
lradius 85.6929
lwrist -3.66536
lhand -47.8473 -23.4319
lfingers 7.12502
lthumb -20.5216 5.50348
rfemur -16.1202 -6.77825 -0.253962
rtibia 75.1496
rfoot -9.50766 9.79895
rtoes -30.4893
lfemur -13.0194 2.42288 -35.9483
ltibia 50.8465
lfoot -28.1526 2.72763
ltoes 9.11698
